<svg width="20" height="18" viewBox="0 0 20 18" fill="none" xmlns="http://www.w3.org/2000/svg">
<path d="M2.47012 17.9997H17.5301C19.0701 17.9997 20.0301 16.3297 19.2601 14.9997L11.7301 1.98969C10.9601 0.659688 9.04012 0.659688 8.27012 1.98969L0.740121 14.9997C-0.0298788 16.3297 0.930121 17.9997 2.47012 17.9997ZM10.0001 10.9997C9.45012 10.9997 9.00012 10.5497 9.00012 9.99969V7.99969C9.00012 7.44969 9.45012 6.99969 10.0001 6.99969C10.5501 6.99969 11.0001 7.44969 11.0001 7.99969V9.99969C11.0001 10.5497 10.5501 10.9997 10.0001 10.9997ZM11.0001 14.9997H9.00012V12.9997H11.0001V14.9997Z" fill="black" fill-opacity="0.54"/>
</svg>
