<svg width="28" height="26" viewBox="0 0 28 26" fill="none" xmlns="http://www.w3.org/2000/svg">
<path d="M17.5941 0H10.3811C10.1354 0 9.94746 0.202369 9.94746 0.448102C9.80292 7.42981 6.26147 14.0646 0.175963 18.7624C-0.0119507 18.907 -0.0553152 19.1961 0.0747787 19.3985L4.2956 25.4117C4.44015 25.6141 4.7148 25.6574 4.91716 25.5129C8.73325 22.593 11.7977 19.0804 13.9948 15.1776C16.2064 19.0804 19.2709 22.593 23.0725 25.5129C23.2749 25.6574 23.5495 25.6141 23.6941 25.4117L27.9149 19.3985C28.0594 19.1961 28.0161 18.9214 27.8137 18.7624C21.7137 14.0646 18.1867 7.44427 18.0422 0.448102C18.0277 0.202369 17.8254 0 17.5941 0Z" fill="#01101C"/>
<path d="M17.5941 0H10.3811C10.1354 0 9.94746 0.202369 9.94746 0.448102C9.80292 7.42981 6.26147 14.0646 0.175963 18.7624C-0.0119507 18.907 -0.0553152 19.1961 0.0747787 19.3985L4.2956 25.4117C4.44015 25.6141 4.7148 25.6574 4.91716 25.5129C8.73325 22.593 11.7977 19.0804 13.9948 15.1776C16.2064 19.0804 19.2709 22.593 23.0725 25.5129C23.2749 25.6574 23.5495 25.6141 23.6941 25.4117L27.9149 19.3985C28.0594 19.1961 28.0161 18.9214 27.8137 18.7624C21.7137 14.0646 18.1867 7.44427 18.0422 0.448102C18.0277 0.202369 17.8254 0 17.5941 0Z" fill="#EE8D65"/>
</svg>
