<svg width="28" height="18" viewBox="0 0 28 18" fill="none" xmlns="http://www.w3.org/2000/svg">
<path d="M5.73553 3.43579C10.3003 -1.14526 17.6997 -1.14526 22.2704 3.43579L22.8196 3.98649C23.0499 4.21645 23.0499 4.5856 22.8196 4.81556L20.9417 6.70365C20.8295 6.81863 20.6405 6.81863 20.5283 6.70365L19.7724 5.94721C16.5895 2.75196 11.4223 2.75196 8.23938 5.94721L7.43035 6.75812C7.31815 6.8731 7.12918 6.8731 7.01698 6.75812L5.13319 4.87002C4.90288 4.64006 4.90288 4.27091 5.13319 4.04095L5.73553 3.43579ZM26.1561 7.33302L27.8273 9.00931C28.0576 9.23927 28.0576 9.60842 27.8273 9.83838L20.2862 17.4089C20.0559 17.6389 19.6898 17.6389 19.4595 17.4089L14.1033 12.0351C14.0443 11.9806 13.9557 11.9806 13.8967 12.0351L8.54645 17.4089C8.31614 17.6389 7.95002 17.6389 7.71971 17.4089L0.17273 9.84443C-0.0575767 9.61447 -0.0575767 9.24532 0.17273 9.01536L1.84393 7.33907C2.07424 7.10911 2.44037 7.10911 2.67067 7.33907L8.02678 12.7129C8.08584 12.7674 8.17442 12.7674 8.23347 12.7129L13.5837 7.33907C13.814 7.10911 14.1801 7.10911 14.4104 7.33907L19.7665 12.7129C19.8256 12.7674 19.9142 12.7674 19.9732 12.7129L25.3293 7.33907C25.5537 7.10306 25.9258 7.10306 26.1561 7.33302Z" fill="#3B99FC"/>
</svg>
