<svg width="25" height="24" viewBox="0 0 25 24" fill="none" xmlns="http://www.w3.org/2000/svg">
<path d="M7.79175 6.5625H17.5417C17.6449 6.5625 17.7292 6.47813 17.7292 6.375C17.7292 5.4375 17.523 4.57734 17.1222 3.84141C16.7191 3.10312 16.1261 2.51016 15.3878 2.10703C14.6519 1.70625 13.7917 1.5 12.8542 1.5H12.4792C11.5417 1.5 10.6816 1.70625 9.94565 2.10703C9.20737 2.51016 8.6144 3.10312 8.21128 3.84141C7.8105 4.57734 7.60425 5.4375 7.60425 6.375C7.60425 6.47813 7.68862 6.5625 7.79175 6.5625Z" fill="#395062"/>
<path d="M22.698 12H19.2292V9.65625C21.0292 9.65625 22.4871 8.19844 22.4871 6.39844C22.4871 6.29531 22.4027 6.21094 22.2996 6.21094H20.8933C20.7902 6.21094 20.7058 6.29531 20.7058 6.39844C20.7058 7.21406 20.0449 7.875 19.2292 7.875H6.10425C5.28862 7.875 4.62769 7.21406 4.62769 6.39844C4.62769 6.29531 4.54331 6.21094 4.44019 6.21094H3.03394C2.93081 6.21094 2.84644 6.29531 2.84644 6.39844C2.84644 8.19844 4.30425 9.65625 6.10425 9.65625V12H2.6355C2.53237 12 2.448 12.0844 2.448 12.1875V13.5C2.448 13.6031 2.53237 13.6875 2.6355 13.6875H6.10425V15.9375C6.10425 16.0898 6.10894 16.2422 6.12065 16.3898C4.51284 17.0766 3.3855 18.6727 3.3855 20.5312C3.3855 20.6344 3.46987 20.7188 3.573 20.7188H4.8855C4.98862 20.7188 5.073 20.6344 5.073 20.5312C5.073 19.4953 5.63315 18.5883 6.46987 18.1008C6.6105 18.5039 6.78862 18.8883 7.0019 19.2492C7.57144 20.2219 8.38472 21.0352 9.35737 21.6047C10.0347 22.0008 10.7871 22.2797 11.591 22.4133C11.6941 22.4133 11.7785 22.3289 11.7785 22.2258V11.3438C11.7785 11.2406 11.8628 11.1562 11.966 11.1562H13.3722C13.4753 11.1562 13.5597 11.2406 13.5597 11.3438V22.2234C13.5597 22.3266 13.6441 22.4109 13.7472 22.4109C14.5511 22.2773 15.3035 21.9984 15.9808 21.6023C16.9535 21.0328 17.7667 20.2195 18.3363 19.2469C18.5496 18.8836 18.7277 18.4992 18.8683 18.0984C19.7003 18.5883 20.2605 19.4953 20.2605 20.5312C20.2605 20.6344 20.3449 20.7188 20.448 20.7188H21.7605C21.8636 20.7188 21.948 20.6344 21.948 20.5312C21.948 18.6727 20.8207 17.0766 19.2128 16.3898C19.2222 16.2398 19.2292 16.0898 19.2292 15.9375V13.6875H22.698C22.8011 13.6875 22.8855 13.6031 22.8855 13.5V12.1875C22.8855 12.0844 22.8011 12 22.698 12Z" fill="#395062"/>
</svg>
