<svg width="18" height="24" viewBox="0 0 18 24" fill="none" xmlns="http://www.w3.org/2000/svg">
<path d="M13.8766 0.10193C14.0234 0.187038 14.137 0.319415 14.1988 0.477437C14.2607 0.635458 14.2671 0.809782 14.2171 0.97193L11.5156 9.74993H16.5001C16.6465 9.74987 16.7898 9.79271 16.9122 9.87316C17.0347 9.9536 17.1308 10.0681 17.1889 10.2026C17.247 10.3371 17.2644 10.4856 17.239 10.6299C17.2136 10.7742 17.1465 10.9078 17.0461 11.0144L5.04605 23.7644C4.92994 23.8879 4.77544 23.9684 4.60772 23.9928C4.43999 24.0172 4.26895 23.9841 4.12246 23.8989C3.97597 23.8136 3.86268 23.6813 3.80104 23.5234C3.73941 23.3655 3.73307 23.1914 3.78305 23.0294L6.48456 14.2499H1.50006C1.35357 14.25 1.21028 14.2071 1.08786 14.1267C0.965449 14.0463 0.869271 13.9317 0.811203 13.7972C0.753135 13.6628 0.735719 13.5142 0.761105 13.37C0.786491 13.2257 0.853568 13.092 0.954055 12.9854L12.9541 0.23543C13.07 0.112129 13.2243 0.0316831 13.3918 0.00717301C13.5593 -0.0173371 13.7301 0.01553 13.8766 0.10043V0.10193Z" fill="#395062"/>
</svg>
