<svg width="25" height="18" viewBox="0 0 25 18" fill="none" xmlns="http://www.w3.org/2000/svg">
<path d="M20.817 1.49197C19.287 0.801974 17.647 0.291974 15.932 0.0019736C15.9167 -0.000958481 15.9009 0.000931061 15.8868 0.00738094C15.8726 0.0138308 15.8608 0.0245219 15.853 0.0379736C15.643 0.406974 15.409 0.887974 15.245 1.26797C13.4261 0.99621 11.5769 0.99621 9.75799 1.26797C9.57533 0.846834 9.36934 0.436198 9.14099 0.0379736C9.13325 0.0243563 9.12154 0.0134234 9.10743 0.00663373C9.09331 -0.000155898 9.07746 -0.00247938 9.06199 -2.64894e-05C7.34799 0.289973 5.70799 0.799974 4.17699 1.49097C4.16382 1.4965 4.15265 1.50592 4.14499 1.51797C1.03299 6.09297 0.179992 10.555 0.598992 14.961C0.600158 14.9718 0.603508 14.9822 0.608837 14.9917C0.614167 15.0011 0.621364 15.0094 0.629992 15.016C2.44638 16.3384 4.47233 17.3458 6.62299 17.996C6.63798 18.0006 6.65402 18.0006 6.66901 17.9959C6.68399 17.9913 6.69723 17.9823 6.70699 17.97C7.16979 17.351 7.57989 16.6944 7.93299 16.007C7.93789 15.9976 7.94072 15.9872 7.94127 15.9766C7.94183 15.9661 7.94011 15.9555 7.93622 15.9456C7.93233 15.9358 7.92637 15.9268 7.91874 15.9195C7.91111 15.9121 7.90199 15.9065 7.89199 15.903C7.246 15.6597 6.62008 15.3661 6.01999 15.025C6.00921 15.0188 6.00012 15.0101 5.99355 14.9995C5.98698 14.989 5.98312 14.977 5.98233 14.9646C5.98153 14.9522 5.98383 14.9398 5.98901 14.9286C5.99418 14.9173 6.00208 14.9075 6.01199 14.9C6.13799 14.807 6.26399 14.71 6.38399 14.613C6.39479 14.6043 6.4078 14.5987 6.42158 14.5969C6.43535 14.5952 6.44934 14.5973 6.46199 14.603C10.389 16.367 14.642 16.367 18.523 14.603C18.5357 14.5969 18.5498 14.5946 18.5638 14.5961C18.5778 14.5977 18.591 14.6032 18.602 14.612C18.722 14.71 18.847 14.807 18.974 14.9C18.984 14.9073 18.992 14.917 18.9974 14.9282C19.0027 14.9394 19.0052 14.9517 19.0046 14.9641C19.004 14.9765 19.0004 14.9885 18.994 14.9991C18.9876 15.0098 18.9787 15.0186 18.968 15.025C18.37 15.369 17.748 15.66 17.095 15.902C17.085 15.9056 17.0758 15.9114 17.0682 15.9188C17.0606 15.9263 17.0546 15.9353 17.0507 15.9452C17.0468 15.9551 17.0451 15.9658 17.0457 15.9764C17.0463 15.9871 17.0491 15.9975 17.054 16.007C17.414 16.694 17.826 17.348 18.279 17.969C18.2884 17.9817 18.3015 17.9912 18.3166 17.9963C18.3316 18.0013 18.3478 18.0015 18.363 17.997C20.5173 17.3486 22.5466 16.3407 24.365 15.016C24.3739 15.0098 24.3813 15.0017 24.3868 14.9924C24.3923 14.9831 24.3958 14.9727 24.397 14.962C24.897 9.86797 23.559 5.44197 20.848 1.51997C20.8413 1.50723 20.8303 1.49729 20.817 1.49197ZM8.51999 12.278C7.33799 12.278 6.36299 11.209 6.36299 9.89797C6.36299 8.58597 7.31899 7.51797 8.51999 7.51797C9.72999 7.51797 10.696 8.59497 10.677 9.89797C10.677 11.21 9.72099 12.278 8.51999 12.278ZM16.495 12.278C15.312 12.278 14.338 11.209 14.338 9.89797C14.338 8.58597 15.293 7.51797 16.495 7.51797C17.705 7.51797 18.671 8.59497 18.652 9.89797C18.652 11.21 17.706 12.278 16.495 12.278Z" fill="white"/>
</svg>
