<svg width="24" height="24" viewBox="0 0 24 24" fill="none" xmlns="http://www.w3.org/2000/svg">
<path d="M2 10.035C2 7.2535 4.254 5 7.035 5H10.965C13.7465 5 16 7.254 16 10.035C16 12.815 13.746 15.0695 10.965 15.0695H8V17.5C8 17.5 2 16.285 2 10.035Z" fill="#395062"/>
<path d="M12.2385 15.9335C12.9879 16.6547 13.988 17.057 15.028 17.0555H16.5V19C16.5 19 22 18.028 22 13.028C22 11.9598 21.5757 10.9353 20.8204 10.18C20.0651 9.42457 19.0407 9.00013 17.9725 9H16.8675C16.954 9.328 17 9.6725 17 10.028C17 12.925 14.96 15.346 12.2385 15.9335Z" fill="#395062"/>
</svg>
