<svg width="18" height="18" viewBox="0 0 18 18" fill="none" xmlns="http://www.w3.org/2000/svg">
<path d="M17.9304 8.99999C17.9304 13.9321 13.9321 17.9304 8.99999 17.9304C4.06786 17.9304 0.0695801 13.9321 0.0695801 8.99999C0.0695801 4.06786 4.06786 0.0695801 8.99999 0.0695801H17.9304V2.30218C17.9304 3.53522 16.9308 4.53479 15.6978 4.53479H9.00032C6.53443 4.53497 4.53515 6.53402 4.53515 8.99996C4.53515 11.466 6.53428 13.4651 9.00032 13.4651C10.653 13.4651 12.0961 12.5672 12.8681 11.2326H8.99999C7.76696 11.2326 6.76739 10.233 6.76739 8.99999C6.76739 7.76696 7.76696 6.76739 8.99999 6.76739H17.9304V8.99999Z" fill="#395062"/>
</svg>
