<svg width="57" height="19" viewBox="0 0 57 19" fill="none" xmlns="http://www.w3.org/2000/svg">
<path fill-rule="evenodd" clip-rule="evenodd" d="M36.5752 5.85018C36.5752 8.25253 35.0639 10.3 32.945 11.0843C33.3174 11.2817 33.6337 11.5837 33.8494 11.9642L37.4746 18.358H33.8793C33.1349 18.358 32.4462 17.9616 32.0694 17.3162L29.2821 12.5422C28.8784 11.8507 28.1405 11.426 27.343 11.426L25.3328 11.426V18.358H21.1356V0.274414L31.1788 0.274415V0.276411C34.1726 0.35627 36.5752 2.82116 36.5752 5.85018ZM25.3328 7.95993H30.2794C31.4384 7.95993 32.378 7.01537 32.378 5.85018C32.378 4.685 31.4384 3.74043 30.2794 3.74043H25.3328V7.95993Z" fill="black"/>
<path d="M17.9878 0.274414V2.38416C17.9878 3.54935 17.0482 4.49391 15.8892 4.49391C13.5908 4.4947 11.2923 4.49391 8.99389 4.49391C6.34473 4.49391 4.19715 6.65293 4.19715 9.3162C4.19715 11.9795 6.34473 14.1385 8.99389 14.1385C10.9492 14.1385 12.6313 12.9623 13.3783 11.2753H9.14379C7.98478 11.2753 7.04522 10.3307 7.04522 9.16551C7.04522 8.00033 7.98478 7.05575 9.14379 7.05575L17.9878 7.0559V9.31635C17.9878 14.31 13.9611 18.3581 8.99389 18.3581C4.0267 18.3581 0 14.31 0 9.31635C0 4.32271 4.0267 0.274561 8.99389 0.274561L17.9878 0.274414Z" fill="black"/>
<path fill-rule="evenodd" clip-rule="evenodd" d="M47.5177 18.358C52.4849 18.358 56.5116 14.3098 56.5116 9.3162C56.5116 7.45919 55.9548 5.73293 54.9998 4.29698C55.7157 3.96106 56.2118 3.23086 56.2118 2.38416V0.274414H47.3678V0.275645C42.4698 0.35611 38.5238 4.37289 38.5238 9.3162C38.5238 14.3098 42.5505 18.358 47.5177 18.358ZM47.5177 4.49391C44.8686 4.49391 42.721 6.65293 42.721 9.3162C42.721 11.9795 44.8686 14.1385 47.5177 14.1385C50.1669 14.1385 52.3145 11.9795 52.3145 9.3162C52.3145 6.65293 50.1669 4.49391 47.5177 4.49391Z" fill="black"/>
</svg>
