<svg width="31" height="24" viewBox="0 0 31 24" fill="none" xmlns="http://www.w3.org/2000/svg">
<path d="M23.2083 8.95778H16.0833V11.3887C16.0833 13.154 14.8139 14.7637 13.0575 14.9404C11.0376 15.1435 9.33327 13.5614 9.33327 11.5828V5.92497L8.18436 6.61544C6.10827 7.86559 4.83514 10.1109 4.83514 12.539L1.08515 14.7093C0.370301 15.1195 0.118114 16.0397 0.534364 16.7545L4.28436 23.2514C4.70038 23.9662 5.6203 24.2123 6.33514 23.8022L11.182 21.0014H17.5851C19.2375 21.0014 20.5851 19.6537 20.5851 18.0014C21.8278 18.0014 22.8351 16.994 22.8351 15.7514V13.5H23.2101C23.8312 13.5 24.3351 12.9961 24.3351 12.375V10.125C24.3333 9.50153 23.8317 8.95778 23.2083 8.95778ZM30.1317 7.24215L26.3841 0.745279C25.968 0.0304355 25.0481 -0.215658 24.3333 0.194498L19.4864 2.99528H16.5534C14.7792 2.99528 13.0411 3.49262 11.5331 4.43106C11.1005 4.70622 10.8333 5.18434 10.8333 5.69997V11.625C10.8333 12.6623 11.6714 13.5 12.7083 13.5C13.7456 13.5 14.5833 12.6618 14.5833 11.625V7.45778H23.2083C24.6581 7.45778 25.8333 8.63294 25.8333 10.0828V11.4187L29.5833 9.25075C30.3005 8.87809 30.5442 7.95934 30.1317 7.24215Z" fill="#395062"/>
</svg>
