<svg width="25" height="33" viewBox="0 0 25 33" fill="none" xmlns="http://www.w3.org/2000/svg">
<path fill-rule="evenodd" clip-rule="evenodd" d="M23.756 25.25C20.1772 16.3127 16 13.9572 16 9.5V4.25H16.875C17.1071 4.25 17.3296 4.15781 17.4937 3.99372C17.6578 3.82962 17.75 3.60706 17.75 3.375V1.625C17.75 1.39294 17.6578 1.17038 17.4937 1.00628C17.3296 0.842187 17.1071 0.75 16.875 0.75H8.12499C7.89293 0.75 7.67037 0.842187 7.50628 1.00628C7.34218 1.17038 7.24999 1.39294 7.24999 1.625V3.375C7.24999 3.60706 7.34218 3.82962 7.50628 3.99372C7.67037 4.15781 7.89293 4.25 8.12499 4.25H8.99999V9.5C8.99999 13.9572 4.82274 16.3127 1.24399 25.25C0.104743 28.0938 -2.82126 32.25 12.5 32.25C27.8212 32.25 24.8952 28.0938 23.756 25.25ZM20.9262 28.3142C19.6977 28.6817 17.253 29.1 12.5 29.1C7.74699 29.1 5.30224 28.6817 4.07374 28.3142C3.63799 28.1847 3.46824 27.679 3.62224 27.2152C4.00724 26.0427 4.73349 24.0163 6.09149 21.7535C9.40949 16.2253 12.8517 22.6232 15.7165 22.6232C18.5812 22.6232 17.7955 19.8915 18.9085 21.7535C19.9327 23.4763 20.761 25.3083 21.3777 27.2152C21.5317 27.679 21.362 28.183 20.9262 28.3142Z" fill="#5E7485"/>
</svg>
