<svg width="72" height="19" viewBox="0 0 72 19" fill="none" xmlns="http://www.w3.org/2000/svg">
<g clip-path="url(#clip0_93_4638)">
<path d="M11.4067 9.52002C11.4067 12.4802 9.01489 14.8721 6.07837 14.8721C3.14185 14.8721 0.75 12.5039 0.75 9.52002C0.75 6.53613 3.14185 4.16797 6.07837 4.16797C9.01489 4.16797 11.4067 6.55981 11.4067 9.52002Z" fill="#142C3F"/>
<path d="M17.2559 9.52002C17.2559 12.3145 16.0718 14.5642 14.6035 14.5642C13.1353 14.5642 11.9512 12.3145 11.9512 9.52002C11.9512 6.72559 13.1353 4.47583 14.6035 4.47583C16.0481 4.47583 17.2559 6.74927 17.2559 9.52002Z" fill="#142C3F"/>
<path d="M19.624 9.52002C19.624 12.0066 19.1978 14.0432 18.6768 14.0432C18.1558 14.0432 17.7295 12.0066 17.7295 9.52002C17.7295 7.03345 18.1558 4.99683 18.6768 4.99683C19.2214 4.99683 19.624 7.03345 19.624 9.52002Z" fill="#142C3F"/>
<path d="M34.3303 4.64185L34.354 4.52344H31.3228L28.5046 11.1306L25.6865 4.52344H22.4185V4.64185H22.4421C22.9868 4.76025 23.271 4.94971 23.271 5.61279V13.4751C23.271 14.1382 22.9868 14.3276 22.4421 14.446H22.4185V14.5645H24.6445V14.446H24.6209C24.0762 14.3276 23.792 14.1382 23.792 13.4751V6.06274L27.4153 14.5645H27.6284L31.3464 5.82593V13.6646C31.2991 14.1855 31.0149 14.3513 30.5176 14.4697H30.4939V14.5881H34.354V14.4697H34.3303C33.833 14.3513 33.5488 14.1855 33.5015 13.6646V5.61279C33.5015 4.94971 33.7856 4.76025 34.3303 4.64185ZM36.1064 9.82813C36.1775 8.40723 36.6748 7.38892 37.5273 7.38892C37.7878 7.38892 38.001 7.48364 38.1904 7.64941C38.5457 8.00464 38.7351 8.73877 38.6877 9.85181H36.1064V9.82813ZM36.0591 10.2307H40.5823V10.207C40.5586 9.11768 40.2507 8.28882 39.6587 7.72046C39.1377 7.22314 38.3562 6.93896 37.551 6.93896H37.5273C37.1011 6.93896 36.5801 7.03369 36.2249 7.22314C35.7986 7.4126 35.4434 7.69678 35.1355 8.07568C34.6382 8.69141 34.354 9.52026 34.2593 10.4438C34.2593 10.4675 34.2593 10.4912 34.2593 10.5386C34.2593 10.5623 34.2593 10.5859 34.2593 10.6096C34.2593 10.657 34.2593 10.7043 34.2593 10.7517C34.2593 10.8228 34.2593 10.9175 34.2593 10.9885C34.3066 13.0962 35.4434 14.7776 37.4563 14.7776C39.2324 14.7776 40.2507 13.4751 40.5112 11.7463L40.3928 11.699C39.9429 12.6226 39.1377 13.1909 38.2141 13.1199C36.9353 13.0725 35.9644 11.7937 36.0591 10.2307ZM45.6975 13.0962C45.5554 13.4514 45.2476 13.6409 44.8213 13.6409C44.395 13.6409 44.0161 13.3567 43.7556 12.8357C43.4714 12.291 43.3057 11.4858 43.3057 10.5623C43.3057 8.62036 43.8977 7.36523 44.845 7.36523C45.2239 7.36523 45.5317 7.55469 45.6975 7.88623V13.0962ZM48.6814 14.4697C48.1367 14.3276 47.8525 14.1382 47.8525 13.4277V4.0498L44.4897 5.04443V5.16284H44.5134C44.9871 5.11548 45.2949 5.18652 45.4844 5.3523C45.6265 5.49438 45.6975 5.68384 45.6975 5.96802V7.24683C45.366 7.03369 44.9634 6.93896 44.4897 6.93896C43.5188 6.93896 42.6426 7.34155 42.0032 8.09937C41.3401 8.88086 40.9849 9.92285 40.9849 11.1543C40.9849 13.333 42.0505 14.8013 43.6609 14.8013C44.6082 14.8013 45.3423 14.2803 45.6975 13.4277V14.5881H48.7051L48.6814 14.4697ZM51.5706 5.32861C51.5706 4.64185 51.0496 4.12085 50.3628 4.12085C49.676 4.12085 49.155 4.64185 49.155 5.32861C49.155 6.01538 49.676 6.53638 50.3628 6.53638C51.0496 6.53638 51.5706 6.01538 51.5706 5.32861ZM52.352 14.4697C51.8074 14.3276 51.5232 14.1382 51.5232 13.4277V6.96265L48.5156 7.83887V7.95728H48.5393C49.2024 8.00464 49.3682 8.24146 49.3682 8.99927V14.5881H52.3757L52.352 14.4697ZM60.0959 14.4697C59.5513 14.3276 59.2671 14.1382 59.2671 13.4277V6.96265L56.3779 7.81519V7.93359H56.4016C56.9463 7.98096 57.0884 8.21777 57.0884 8.99927V13.0962C56.8989 13.4514 56.5674 13.6646 56.1648 13.6646C55.5017 13.6646 55.1465 13.2146 55.1465 12.4094V6.96265L52.1389 7.83887V7.95728H52.1626C52.8257 8.00464 52.9915 8.24146 52.9915 8.99927V12.4568C52.9915 12.6936 53.0151 12.9304 53.0625 13.1672L53.1099 13.4041C53.3704 14.3276 54.0334 14.8013 55.0754 14.8013C55.9517 14.8013 56.7332 14.2566 57.0884 13.4041V14.5881H60.0959V14.4697ZM71.7947 14.5881V14.4697H71.771C71.179 14.3276 70.9421 14.0671 70.9421 13.5461V9.14136C70.9421 7.76782 70.1606 6.96265 68.8818 6.96265C67.9346 6.96265 67.1531 7.50732 66.8452 8.35986C66.6084 7.45996 65.8979 6.96265 64.8796 6.96265C63.9797 6.96265 63.2693 7.43628 62.9614 8.24146V6.98633L59.9539 7.81519V7.93359H59.9775C60.6169 7.98096 60.8064 8.21777 60.8064 8.97559V14.6118H63.6245V14.4934H63.6008C63.1272 14.375 62.9614 14.1855 62.9614 13.6409V8.573C63.0798 8.28882 63.3403 7.93359 63.8376 7.93359C64.4534 7.93359 64.7849 8.35986 64.7849 9.2124V14.5881H67.603V14.4697H67.5793C67.1057 14.3513 66.9399 14.1619 66.9399 13.6172V9.14136C66.9399 8.97559 66.9163 8.80981 66.8926 8.64404C67.0347 8.3125 67.2952 7.93359 67.8162 7.93359C68.4556 7.93359 68.7634 8.35986 68.7634 9.2124V14.5881H71.7947Z" fill="#142C3F"/>
</g>
<defs>
<clipPath id="clip0_93_4638">
<rect width="71.0449" height="18.9453" fill="white" transform="translate(0.75)"/>
</clipPath>
</defs>
</svg>
