<svg width="35" height="35" viewBox="0 0 35 35" fill="none" xmlns="http://www.w3.org/2000/svg">
<path d="M0 0H17.5C27.1643 0 35 7.83498 35 17.5C35 27.165 27.1643 35 17.5 35H13.125V26.25H17.5C22.3322 26.25 26.25 22.3322 26.25 17.5C26.25 12.6678 22.3322 8.75 17.5 8.75H4.375C1.95875 8.75 0 6.79125 0 4.375V0Z" fill="#01101C"/>
<path d="M0 0H17.5C27.1643 0 35 7.83498 35 17.5C35 27.165 27.1643 35 17.5 35H13.125V26.25H17.5C22.3322 26.25 26.25 22.3322 26.25 17.5C26.25 12.6678 22.3322 8.75 17.5 8.75H4.375C1.95875 8.75 0 6.79125 0 4.375V0Z" fill="#0BA7FE"/>
<path d="M17.5 13.125C19.9168 13.125 21.875 15.0839 21.875 17.5C21.875 19.9161 19.9168 21.875 17.5 21.875H8.75V35H0V13.125H17.5Z" fill="#01101C"/>
<path d="M17.5 13.125C19.9168 13.125 21.875 15.0839 21.875 17.5C21.875 19.9161 19.9168 21.875 17.5 21.875H8.75V35H0V13.125H17.5Z" fill="#0BA7FE"/>
</svg>
